<mxfile host="app.diagrams.net" modified="2022-09-12T23:01:00.811Z" agent="5.0 (X11; Linux x86_64) AppleWebKit/537.36 (KHTML, like Gecko) Chrome/105.0.0.0 Safari/537.36" etag="2VL-Vymkws927fABfqwJ" version="20.3.0" type="github">
  <diagram id="TVsBRt_6ifpyhdmxl0sS" name="Página-1">
    <mxGraphModel dx="930" dy="555" grid="1" gridSize="10" guides="1" tooltips="1" connect="1" arrows="1" fold="1" page="1" pageScale="1" pageWidth="827" pageHeight="1169" math="0" shadow="0">
      <root>
        <mxCell id="0" />
        <mxCell id="1" parent="0" />
        <mxCell id="l2oMR_xmYZ3DmNcnoLsg-2" value="" style="rounded=1;whiteSpace=wrap;html=1;" parent="1" vertex="1">
          <mxGeometry x="400" y="350" width="330" height="550" as="geometry" />
        </mxCell>
        <mxCell id="3qhmE-iBuOqCYNNwEswj-12" style="edgeStyle=none;rounded=0;orthogonalLoop=1;jettySize=auto;html=1;endArrow=none;endFill=0;" edge="1" parent="1" source="l2oMR_xmYZ3DmNcnoLsg-3" target="l2oMR_xmYZ3DmNcnoLsg-7">
          <mxGeometry relative="1" as="geometry" />
        </mxCell>
        <mxCell id="l2oMR_xmYZ3DmNcnoLsg-3" value="cidadão&lt;br&gt;" style="shape=umlActor;verticalLabelPosition=bottom;verticalAlign=top;html=1;" parent="1" vertex="1">
          <mxGeometry x="310" y="385" width="30" height="60" as="geometry" />
        </mxCell>
        <mxCell id="3qhmE-iBuOqCYNNwEswj-1" style="edgeStyle=orthogonalEdgeStyle;rounded=0;orthogonalLoop=1;jettySize=auto;html=1;" edge="1" parent="1" source="l2oMR_xmYZ3DmNcnoLsg-7" target="l2oMR_xmYZ3DmNcnoLsg-9">
          <mxGeometry relative="1" as="geometry" />
        </mxCell>
        <mxCell id="l2oMR_xmYZ3DmNcnoLsg-7" value="abre uma notificação de problema" style="ellipse;whiteSpace=wrap;html=1;" parent="1" vertex="1">
          <mxGeometry x="420" y="375" width="120" height="80" as="geometry" />
        </mxCell>
        <mxCell id="l2oMR_xmYZ3DmNcnoLsg-9" value="descreve o problema" style="ellipse;whiteSpace=wrap;html=1;" parent="1" vertex="1">
          <mxGeometry x="420" y="505" width="120" height="80" as="geometry" />
        </mxCell>
        <mxCell id="3qhmE-iBuOqCYNNwEswj-13" style="edgeStyle=none;rounded=0;orthogonalLoop=1;jettySize=auto;html=1;endArrow=none;endFill=0;" edge="1" parent="1" source="l2oMR_xmYZ3DmNcnoLsg-15" target="l2oMR_xmYZ3DmNcnoLsg-16">
          <mxGeometry relative="1" as="geometry" />
        </mxCell>
        <mxCell id="3qhmE-iBuOqCYNNwEswj-14" style="edgeStyle=none;rounded=0;orthogonalLoop=1;jettySize=auto;html=1;endArrow=none;endFill=0;" edge="1" parent="1" source="l2oMR_xmYZ3DmNcnoLsg-15" target="l2oMR_xmYZ3DmNcnoLsg-18">
          <mxGeometry relative="1" as="geometry" />
        </mxCell>
        <mxCell id="3qhmE-iBuOqCYNNwEswj-15" style="edgeStyle=none;rounded=0;orthogonalLoop=1;jettySize=auto;html=1;endArrow=none;endFill=0;" edge="1" parent="1" source="l2oMR_xmYZ3DmNcnoLsg-15" target="l2oMR_xmYZ3DmNcnoLsg-19">
          <mxGeometry relative="1" as="geometry" />
        </mxCell>
        <mxCell id="l2oMR_xmYZ3DmNcnoLsg-15" value="Município" style="shape=umlActor;verticalLabelPosition=bottom;verticalAlign=top;html=1;outlineConnect=0;" parent="1" vertex="1">
          <mxGeometry x="780" y="570" width="30" height="60" as="geometry" />
        </mxCell>
        <mxCell id="l2oMR_xmYZ3DmNcnoLsg-16" value="consulta notificações" style="ellipse;whiteSpace=wrap;html=1;" parent="1" vertex="1">
          <mxGeometry x="590" y="460" width="120" height="80" as="geometry" />
        </mxCell>
        <mxCell id="l2oMR_xmYZ3DmNcnoLsg-18" value="Abre uma ordem de serviço para o reparo" style="ellipse;whiteSpace=wrap;html=1;" parent="1" vertex="1">
          <mxGeometry x="590" y="620" width="120" height="80" as="geometry" />
        </mxCell>
        <mxCell id="l2oMR_xmYZ3DmNcnoLsg-19" value="consulta reparos&amp;nbsp;" style="ellipse;whiteSpace=wrap;html=1;" parent="1" vertex="1">
          <mxGeometry x="580" y="740" width="120" height="80" as="geometry" />
        </mxCell>
        <mxCell id="3qhmE-iBuOqCYNNwEswj-16" style="edgeStyle=none;rounded=0;orthogonalLoop=1;jettySize=auto;html=1;endArrow=none;endFill=0;" edge="1" parent="1" source="l2oMR_xmYZ3DmNcnoLsg-22" target="l2oMR_xmYZ3DmNcnoLsg-24">
          <mxGeometry relative="1" as="geometry" />
        </mxCell>
        <mxCell id="3qhmE-iBuOqCYNNwEswj-17" style="edgeStyle=none;rounded=0;orthogonalLoop=1;jettySize=auto;html=1;endArrow=none;endFill=0;" edge="1" parent="1" source="l2oMR_xmYZ3DmNcnoLsg-22" target="l2oMR_xmYZ3DmNcnoLsg-23">
          <mxGeometry relative="1" as="geometry" />
        </mxCell>
        <mxCell id="l2oMR_xmYZ3DmNcnoLsg-22" value="Equipe de manutenção&lt;br&gt;" style="shape=umlActor;verticalLabelPosition=bottom;verticalAlign=top;html=1;outlineConnect=0;" parent="1" vertex="1">
          <mxGeometry x="310" y="750" width="30" height="60" as="geometry" />
        </mxCell>
        <mxCell id="l2oMR_xmYZ3DmNcnoLsg-23" value="Marca quando terminar o reparo" style="ellipse;whiteSpace=wrap;html=1;" parent="1" vertex="1">
          <mxGeometry x="420" y="780" width="120" height="80" as="geometry" />
        </mxCell>
        <mxCell id="l2oMR_xmYZ3DmNcnoLsg-24" value="Recebe as ordens de serviço" style="ellipse;whiteSpace=wrap;html=1;" parent="1" vertex="1">
          <mxGeometry x="420" y="670" width="120" height="80" as="geometry" />
        </mxCell>
      </root>
    </mxGraphModel>
  </diagram>
</mxfile>
